<svg xmlns="http://www.w3.org/2000/svg" xmlns:xlink="http://www.w3.org/1999/xlink" width="80" height="80" viewBox="0 0 80 80">
    <defs>
        <path id="a" d="M32 33.33A1.332 1.332 0 0 0 30.667 32h-.003l-13.312.024c-1.825 0-3.425 1.519-3.564 1.657l-6.705 6.103c-1.162 1.141-1.75 2.344-1.75 3.572 0 1.228.588 2.43 1.695 3.515l6.696 7.405C13.9 54.452 15.5 56 17.334 56h13.333a1.333 1.333 0 1 0 0-2.666H17.333c-.522 0-1.34-.566-1.677-.894l-6.703-7.414C8.32 44.404 8 43.843 8 43.356c0-.486.32-1.048.916-1.634l6.704-6.105c.33-.322 1.175-.95 1.735-.95h13.314A1.334 1.334 0 0 0 32 33.33zm-4 12.003h-5.333a1.333 1.333 0 1 0 0 2.667H28a1.333 1.333 0 1 0 0-2.667zm21.333 32h-4V22.667a1.333 1.333 0 1 0-2.666 0v54.666h-5.334V28c0-.736-.596-1.333-1.333-1.333H12.02c-.523 0-1.34-.566-1.71-.927l-6.69-6.921c-.632-.622-.952-1.183-.952-1.67 0-.486.32-1.048.953-1.67l6.667-6.551C10.616 8.604 11.46 8 12.019 8h18.648a1.333 1.333 0 1 0 0-2.667H12.019c-1.826 0-3.426 1.519-3.603 1.692l-6.667 6.552C.588 14.72 0 15.92 0 17.15c0 1.228.588 2.431 1.727 3.547l6.682 6.913c.175.176 1.776 1.724 3.61 1.724h22.648v48h-9.334a1.333 1.333 0 1 0 0 2.667h24a1.333 1.333 0 1 0 0-2.667zM28 40h-8a1.333 1.333 0 1 0 0 2.667h8A1.333 1.333 0 1 0 28 40zm-8 37.333H1.333a1.333 1.333 0 1 0 0 2.667H20a1.333 1.333 0 1 0 0-2.667zm8-64H14.667a1.333 1.333 0 1 0 0 2.667H28a1.333 1.333 0 1 0 0-2.667zM52 32h8a1.333 1.333 0 1 0 0-2.667h-8A1.333 1.333 0 1 0 52 32zM28 18.667H17.333a1.333 1.333 0 1 0 0 2.666H28a1.333 1.333 0 1 0 0-2.666zm50.667 58.666H76A1.333 1.333 0 1 0 76 80h2.667a1.333 1.333 0 1 0 0-2.667zM52 26.667h13.333a1.333 1.333 0 1 0 0-2.667H52a1.333 1.333 0 1 0 0 2.667zm16 50.666H57.333a1.333 1.333 0 1 0 0 2.667H68a1.333 1.333 0 1 0 0-2.667zm12-49.957c0-1.193-.573-2.336-1.78-3.521l-6.636-6.14c-.177-.172-1.777-1.692-3.603-1.692H45.333V3.953c0-2.18-1.794-3.953-4-3.953h-2.666c-2.206 0-4 1.773-4 3.953v18.714a1.333 1.333 0 1 0 2.666 0V3.953c0-.71.597-1.286 1.333-1.286h2.667c.736 0 1.333.577 1.333 1.286v13.403c0 .736.596 1.31 1.334 1.31H67.98c.528 0 1.348.58 1.763.98l6.636 6.138c.633.621.953 1.157.953 1.592 0 .433-.32.968-1.01 1.65l-6.61 7.357c-.33.322-1.175.95-1.733.95H49.332A1.332 1.332 0 1 0 49.333 40h.002l18.646-.024c1.826 0 3.426-1.519 3.659-1.752l6.61-7.356c1.177-1.157 1.75-2.3 1.75-3.492z"/>
    </defs>
    <g fill="none" fill-rule="evenodd">
        <mask id="b" fill="#fff">
            <use xlink:href="#a"/>
        </mask>
        <g fill="#8AC53F" mask="url(#b)">
            <path d="M0 0h80v80H0z"/>
        </g>
    </g>
</svg>
