<svg xmlns="http://www.w3.org/2000/svg" xmlns:xlink="http://www.w3.org/1999/xlink" width="120" height="120" viewBox="0 0 120 120">
    <defs>
        <path id="a" d="M15.428 39.918c1.06.31 2.17-.3 2.478-1.362C23.83 18.21 42.784 4 64 4c3.396 0 6.772.354 10.06 1.056-.072 2.878 1.17 4.852 1.97 6.12.222.352.524.832.56.898 0 7.172-1.466 8.34-1.45 8.344-3.242 0-8.562 2.896-10.562 6.63-1.228 2.29-1.128 4.714.278 6.826.964 1.446 1.794 3.054 2.598 4.61 1.7 3.292 3.586 6.944 6.548 6.944.626 0 1.302-.164 2.034-.53 2.332-1.166 4.004-4.482 5.62-7.686.712-1.412 1.758-3.484 2.378-4.142 2.03.276 3.022 2.112 4.364 5.02.988 2.14 2.01 4.35 4.018 5.354 3.38 1.69 14.494-.08 20.636-2.688a2 2 0 0 0 1.148-2.362c-4.198-15.52-15.6-28.43-30.504-34.532a2 2 0 1 0-1.516 3.7c13.202 5.408 23.428 16.598 27.658 30.152-6.224 2.194-14.212 2.854-15.634 2.152-.752-.376-1.508-2.01-2.174-3.452-1.394-3.02-3.304-7.156-8.18-7.372-2.52-.152-3.94 2.748-5.766 6.37-1.072 2.124-2.69 5.334-3.98 5.968-.742-.174-2.216-3.028-3.096-4.732-.814-1.576-1.736-3.362-2.824-4.992-.59-.884-.614-1.724-.08-2.72 1.374-2.564 5.496-4.518 7.036-4.518 3.616 0 5.45-4.152 5.45-12.344 0-1.164-.598-2.112-1.174-3.03-.848-1.342-1.722-2.732-1.204-5.104a2 2 0 0 0-1.464-2.366A52.209 52.209 0 0 0 64 0C41.016 0 20.482 15.396 14.066 37.44a1.998 1.998 0 0 0 1.362 2.478zM87.992 53.04c-.578.164-1.368.392-1.578.408-2.764 0-4.516 2.14-5.794 3.702-.488.596-1.37 1.666-1.932 1.682a6.265 6.265 0 0 0-2.824-.68c-2.358 0-4.4 1.402-4.856 3.338-.322 1.36.152 3.222 2.442 4.368 3.248 1.624 6.606 3.302 8.1 4.796 1.028 1.028 2.806 1.618 4.88 1.618 3.15 0 7.338-1.53 8.776-5.846.568-1.7 1.926-3 3.24-4.256 1.524-1.462 2.966-2.84 2.986-4.818.014-1.168-.504-2.284-1.536-3.318-1.406-1.404-3.32-2.118-5.692-2.118-2.276 0-4.552.65-6.212 1.124zm9.44 4.258c-.094.394-1.09 1.348-1.752 1.982-1.51 1.444-3.388 3.242-4.268 5.882-.988 2.96-4.324 3.11-4.982 3.11-1.166 0-1.898-.308-2.05-.444-1.956-1.956-5.446-3.702-9.142-5.548l-.022-.01c.376-.154 1.072-.164 1.684.14.646.324 1.31.488 1.97.488 2.214 0 3.612-1.708 4.844-3.214.902-1.098 1.832-2.236 2.7-2.236.71 0 1.536-.236 2.676-.562 1.514-.432 3.398-.97 5.114-.97 1.29 0 2.226.31 2.862.946.278.28.354.436.366.436zm18.072-12.494a2.008 2.008 0 0 0-2.254-1.708 2.001 2.001 0 0 0-1.708 2.256A48.71 48.71 0 0 1 112 52c0 26.276-21.22 47.686-47.424 47.996-7.112-4.542-13.778-10.106-10.808-17.034 5.332-12.446.37-17.084-1.75-19.068l-.398-.378c-.606-.604-1.29-1.016-1.892-1.378-1.464-.878-1.858-1.114-1.072-3.472.52-1.566 1.212-2.296 2.01-3.142 1.85-1.956 3.264-3.901 3.264-9.558 0-3.292-1.67-5.918-4.582-7.204-3.302-1.46-7.712-.944-10.044 1.172-1.456 1.324-1.946 3.127-1.342 4.94 1.426 4.27-1.832 10.442-7.92 15.008-1.612 1.208-2.092.654-2.38.324-1.786-2.058-1.648-7.912-.182-9.376.982-.982 1.274-2.236.78-3.354-1.62-3.674-11.954-3.39-14.004-3.294a2.003 2.003 0 0 0-1.894 1.755A47.279 47.279 0 0 0 12 52c0 23.98 16.238 44.738 39.486 50.482a2 2 0 0 0 .958-3.882C30.986 93.298 16 74.134 16 52c0-1.389.048-2.615.154-3.865 3.384-.004 6.258.388 7.724.836-2.294 3.582-2.042 10.624.762 13.856 2.01 2.316 4.926 2.412 7.802.254 7.684-5.762 11.34-13.408 9.314-19.472-.064-.198-.128-.384.24-.718 1.052-.956 3.73-1.36 5.734-.472 1.48.654 2.2 1.814 2.2 3.546 0 4.514-.91 5.478-2.17 6.81-.934.99-2.098 2.22-2.9 4.626-1.798 5.403 1.086 7.134 2.81 8.168.446.266.866.518 1.122.774.146.146.312.302.494.472 1.76 1.644 5.032 4.706.806 14.568-4.792 11.182 7.564 18.978 12.84 22.308.32.2.69.308 1.068.308 28.672 0 52-23.328 52-52a52.64 52.64 0 0 0-.496-7.196zM97.422 96.938C87.71 104.174 76.152 108 64 108 33.122 108 8 82.88 8 52a2 2 0 0 0-4 0c0 32.414 25.84 58.888 58 59.95V118a2 2 0 0 0 4 0v-6.08c12.282-.398 23.94-4.418 33.812-11.774a2.001 2.001 0 0 0-2.39-3.208zM65.53 81.034c-2.496 0-5.424 2.872-6.492 5.45-.834 2.014-.586 3.892.682 5.16 1.194 1.194 2.966 1.88 4.862 1.88s3.668-.686 4.864-1.88c1.328-1.328 1.652-3.28.912-5.494-.498-1.496-1.486-3.078-2.638-4.232a3.076 3.076 0 0 0-2.19-.884zm1.088 7.78c-.888.888-3.196.864-4.06.022-.028-.086-.026-.586.504-1.462.69-1.138 1.664-1.942 2.192-2.228.568.674 1.06 1.518 1.31 2.268.222.662.242 1.214.054 1.4z"/>
    </defs>
    <g fill="none" fill-rule="evenodd">
        <mask id="b" fill="#fff">
            <use xlink:href="#a"/>
        </mask>
        <g fill="#8AC53F" mask="url(#b)">
            <path d="M0 0h120v120H0z"/>
        </g>
    </g>
</svg>
