<svg xmlns="http://www.w3.org/2000/svg" xmlns:xlink="http://www.w3.org/1999/xlink" width="80" height="80" viewBox="0 0 80 80">
    <defs>
        <path id="a" d="M50.888 26.95c-1.604 0-2.701.966-3.585 1.743-.399.353-.948.835-1.2.835a.46.46 0 0 1-.174-.053c-1.22-.612-2.704.173-3.408 1.876-.504 1.215-.664 3.058.536 4.258 2.327 2.327 4.38 2.815 5.692 2.815 2.1 0 3.83-1.277 4.516-3.336.232-.697.631-1.321 1.016-1.925.756-1.184 2.023-3.167-.117-4.872-1.133-.903-2.204-1.342-3.276-1.342zm1.145 4.778c-.428.67-.961 1.507-1.297 2.517-.325.975-1.032 1.512-1.987 1.512-1.142 0-2.496-.722-3.806-2.033-.104-.105-.155-.355-.132-.652a2.35 2.35 0 0 1 .346-1.036c.314.105.63.159.947.159 1.257 0 2.163-.797 2.961-1.5.631-.555 1.226-1.079 1.823-1.079.439 0 .981.256 1.615.76.117.095.166.156.18.159-.028.22-.4.804-.65 1.193zM16.921 18.589a1.332 1.332 0 0 0 1.702-.812C21.817 8.74 30.409 2.667 40 2.667c1.497 0 2.988.146 4.445.436-.012.809.076 1.673.16 2.518.079.776.203 2.026.098 2.524-2.635.93-4.516 2.556-5.182 4.491-.488 1.419-.281 2.91.58 4.204.452.678.847 1.44 1.227 2.179.793 1.534 1.825 3.536 3.476 3.536.35 0 .73-.09 1.141-.296 1.03-.516 1.691-1.696 2.39-2.946.676-1.205 1.516-2.706 2.332-2.706.47 0 .648.086 1.005 1.776.24 1.134.539 2.546 1.8 3.176 1.75.878 7.172.016 10.219-1.279.056-.024.092-.068.142-.099.079-.045.154-.09.22-.149.064-.059.114-.123.166-.192.05-.068.098-.133.137-.21.038-.077.059-.155.082-.24a1.21 1.21 0 0 0 .046-.249c.007-.085-.004-.17-.014-.258-.008-.06.002-.117-.012-.177a25.364 25.364 0 0 0-13.2-16.073 1.333 1.333 0 1 0-1.187 2.388 22.664 22.664 0 0 1 11.433 13.23c-2.761.895-6.137 1.192-6.808.944-.161-.16-.32-.913-.414-1.364-.288-1.36-.823-3.89-3.615-3.89-2.38 0-3.643 2.257-4.659 4.071-.312.56-.812 1.452-1.14 1.768-.33-.356-.827-1.318-1.17-1.984-.395-.767-.843-1.635-1.378-2.435-.4-.602-.494-1.226-.277-1.858.405-1.179 1.798-2.264 3.727-2.904 1.952-.65 1.705-3.09 1.489-5.243-.108-1.073-.23-2.29-.072-3.012A1.334 1.334 0 0 0 46.21.767 25.418 25.418 0 0 0 40 0C29.281 0 19.68 6.787 16.11 16.888a1.331 1.331 0 0 0 .811 1.701zM16 69.333a1.332 1.332 0 0 0 .943-2.276L4.867 54.988c-.09-.079-2.2-1.961-2.2-5.655v-20a2.67 2.67 0 0 1 2.666-2.666A2.67 2.67 0 0 1 8 29.333V39.89a1.333 1.333 0 1 0 2.667 0V29.333A5.339 5.339 0 0 0 5.333 24 5.339 5.339 0 0 0 0 29.333v20c0 4.979 3.012 7.578 3.057 7.61l12 12c.26.26.602.39.943.39zm49.333-44c0-.452-.012-.901-.034-1.346-.04-.736-.672-1.316-1.402-1.262a1.332 1.332 0 0 0-1.262 1.4c.02.402.032.803.032 1.208 0 12.368-9.96 22.456-22.279 22.664-4.435-2.937-3.937-5.662-3.163-7.472 2.539-5.924-1.128-8.613-2.508-9.627-.088-.064-.169-.12-.238-.173-.016-.49.204-1.662.37-2.541.307-1.638.691-3.675.691-5.747 0-1.735-.883-3.12-2.421-3.8-1.714-.757-4.004-.481-5.223.628-.803.73-1.081 1.764-.747 2.765.32.96.18 2.686-.706 4.126-.455.738-1.282 1.66-2.636 1.857-.231.035-.34.017-.351.027-.13-.17-.255-.824-.336-1.26-.37-1.947-1.056-5.574-6.953-5.574-.063 0-.118.028-.178.036a1.293 1.293 0 0 0-.269.055c-.077.028-.141.067-.21.108-.08.045-.155.09-.223.15-.062.054-.107.118-.158.183-.053.07-.105.135-.145.214-.04.08-.06.165-.083.253-.016.06-.049.11-.057.173a23.142 23.142 0 0 0-.177 2.955c0 10.723 6.79 20.324 16.894 23.893a1.33 1.33 0 0 0 1.702-.813 1.335 1.335 0 0 0-.813-1.701c-9.042-3.193-15.116-11.786-15.116-21.379 0-.493.014-.945.042-1.393 2.548.31 2.808 1.67 3.123 3.337.253 1.33.727 3.808 3.693 3.376 1.85-.27 3.456-1.372 4.522-3.098 1.198-1.947 1.586-4.506.94-6.278.149-.232 1.134-.588 2.128-.296.978.29 1.092.97 1.092 1.456 0 1.824-.358 3.726-.646 5.254-.437 2.322-.726 3.857.21 4.792.154.156.4.345.701.566 1.332.976 3.34 2.45 1.636 6.426-1.252 2.922-1.487 7.201 4.515 10.986.212.135.458.206.71.206 13.97 0 25.333-11.364 25.333-25.334zM30.667 72h-1.334V61.333c0-4.906-2.998-7.562-3.057-7.609l-9.333-9.333c-1.003-1.004-2.295-1.587-3.635-1.643a4.977 4.977 0 0 0-3.745 1.481 4.966 4.966 0 0 0-1.483 3.746c.056 1.34.64 2.632 1.644 3.634l6.667 6.667a1.332 1.332 0 1 0 1.885-1.885l-6.667-6.667c-.529-.53-.836-1.19-.862-1.858-.028-.659.216-1.265.701-1.751.487-.485 1.076-.73 1.75-.701.67.026 1.331.333 1.86.862l9.395 9.392c.09.082 2.214 2.02 2.214 5.666V72H9.333C8.596 72 8 72.597 8 73.333v5.334a1.333 1.333 0 1 0 2.667 0v-4h18.666v4a1.333 1.333 0 1 0 2.667 0v-5.334c0-.736-.596-1.333-1.333-1.333zm44-48a5.339 5.339 0 0 0-5.333 5.333V39.89a1.333 1.333 0 1 0 2.666 0V29.333a2.67 2.67 0 0 1 2.667-2.666 2.67 2.67 0 0 1 2.667 2.666v20c0 3.694-2.111 5.576-2.276 5.724l-12 12A1.332 1.332 0 0 0 64 69.333c.342 0 .683-.13.943-.39l11.916-11.924c.13-.108 3.141-2.707 3.141-7.686v-20A5.339 5.339 0 0 0 74.667 24zm-4 48H53.333V61.333c0-3.645 2.124-5.584 2.276-5.724l9.334-9.333c.528-.53 1.189-.836 1.858-.863.68-.029 1.264.216 1.75.702s.73 1.092.702 1.75c-.026.67-.333 1.33-.862 1.859l-6.667 6.667a1.332 1.332 0 0 0 0 1.885 1.332 1.332 0 0 0 1.885 0l6.667-6.667c1.004-1.002 1.587-2.294 1.644-3.634a4.966 4.966 0 0 0-1.482-3.746 4.97 4.97 0 0 0-3.746-1.481c-1.34.056-2.632.638-3.634 1.643l-9.264 9.269c-.128.11-3.127 2.767-3.127 7.673V72h-1.333c-.738 0-1.334.597-1.334 1.333v5.334a1.333 1.333 0 1 0 2.667 0v-4h18.667v4a1.333 1.333 0 1 0 2.666 0v-5.334c0-.736-.596-1.333-1.333-1.333z"/>
    </defs>
    <g fill="none" fill-rule="evenodd">
        <mask id="b" fill="#fff">
            <use xlink:href="#a"/>
        </mask>
        <g fill="#8AC53F" mask="url(#b)">
            <path d="M0 0h80v80H0z"/>
        </g>
    </g>
</svg>
