<svg xmlns="http://www.w3.org/2000/svg" xmlns:xlink="http://www.w3.org/1999/xlink" width="120" height="120" viewBox="0 0 120 120">
    <defs>
        <path id="a" d="M84.484 104.06a1.995 1.995 0 0 0-2.424 1.453l-2 8A1.998 1.998 0 0 0 82.002 116a2 2 0 0 0 1.938-1.514l2-8a2 2 0 0 0-1.456-2.426zM60 64c.26 0 .52-.05.764-.152l22-9.104a2 2 0 0 0-1.532-3.696L60 59.835 4 36.663V36a2 2 0 0 0-4 0v2c0 .81.488 1.54 1.236 1.847l58 24c.244.102.504.153.764.153zm23.792 20.49a1.997 1.997 0 0 0-2.678-.908C77.316 85.46 70.972 87.643 62 87.942V70a2 2 0 0 0-4 0v17.924c-24.834-.792-32.848-15.836-34-18.34V56a2 2 0 0 0-4 0v14c0 .254.048.506.142.743C20.49 71.61 29.002 92 60 92c10.834 0 18.426-2.628 22.886-4.832a1.995 1.995 0 0 0 .906-2.678zM90 106a2 2 0 0 0-2 2v6a2 2 0 1 0 4 0v-6a2 2 0 0 0-2-2zm28-72a2 2 0 0 0-2 2v.66l-24 9.877v-3.614l26.764-11.076a1.998 1.998 0 0 0 .002-3.696l-58.002-24a2.002 2.002 0 0 0-1.528 0l-58 24a2 2 0 0 0 0 3.697l58 24a1.98 1.98 0 0 0 1.528 0l20.972-8.678a1.997 1.997 0 0 0 1.084-2.613 2.001 2.001 0 0 0-2.612-1.082L60 51.835 7.23 30 60 8.164 112.77 30l-22.962 9.502-21.994-8.212c.116-.416.186-.844.186-1.29 0-3.364-3.514-6-8-6-4.486 0-8 2.636-8 6 0 3.363 3.514 6 8 6 2.002 0 3.788-.547 5.176-1.426L88 43.096V92.368c-2.322.83-4 3.028-4 5.632 0 3.308 2.692 6 6 6s6-2.692 6-6c0-2.604-1.678-4.802-4-5.632V81.016c5.742-4.334 7.8-10.106 7.89-10.362.072-.21.11-.432.11-.654V56a2 2 0 1 0-4 0v13.63c-.346.848-1.548 3.462-4 6.042V50.864l26.762-11.014A2 2 0 0 0 120 38v-2a2 2 0 0 0-2-2zm-28 66c-1.104 0-2-.898-2-2 0-1.102.896-2 2-2s2 .898 2 2c0 1.101-.896 2-2 2zM60 32c-2.442 0-4-1.185-4-2 0-.817 1.558-2 4-2s4 1.184 4 2c0 .816-1.558 2-4 2zm37.94 73.513a2 2 0 1 0-3.88.972l2 8a2 2 0 0 0 3.88-.972l-2-8z"/>
    </defs>
    <g fill="none" fill-rule="evenodd">
        <mask id="b" fill="#fff">
            <use xlink:href="#a"/>
        </mask>
        <g fill="#8AC53F" mask="url(#b)">
            <path d="M0 0h120v120H0z"/>
        </g>
    </g>
</svg>
